<svg width="1610" height="798" viewBox="0 0 1610 798" fill="none" xmlns="http://www.w3.org/2000/svg">
<path fill-rule="evenodd" clip-rule="evenodd" d="M214.475 290.682C186.815 293.133 161.706 309.731 148.435 334.338C141.182 347.787 138.201 360.365 138.591 375.873L138.815 384.797L130.881 384.578C125.497 384.429 121.395 384.686 118.115 385.376C108.818 387.335 98.6943 393.547 92.3302 401.2C88.996 405.211 84.1175 414.967 82.8501 420.161C81.5694 425.409 81.7704 437.987 83.2196 443.297C87.7994 460.075 101.027 472.853 117.922 476.82C122.657 477.932 130.502 478 253.523 478C377.801 478 384.303 477.942 388.34 476.797C404.555 472.197 415.554 460.613 419.155 444.344C421.411 434.148 419.048 421.428 413.285 412.747C407.308 403.745 397.234 396.784 387.074 394.637C380.476 393.244 370.301 393.701 365.296 395.617C363.317 396.374 361.604 396.898 361.487 396.782C361.371 396.666 361.764 395.26 362.361 393.658C363.979 389.319 363.812 378.767 362.039 373.229C358.896 363.413 351.392 354.675 342.468 350.444C336.776 347.744 332.377 346.785 325.721 346.796C319.79 346.805 315.379 347.855 309.279 350.709C306.868 351.837 304.822 352.68 304.733 352.583C304.644 352.486 303.355 349.17 301.869 345.214C292.135 319.31 270.257 299.662 243.606 292.892C238.432 291.578 223.969 289.713 221.458 290.037C221.094 290.084 217.952 290.374 214.475 290.682Z" fill="#A0ACB3"/>
<path fill-rule="evenodd" clip-rule="evenodd" d="M1421.09 49.9726C1460.53 53.4667 1496.34 77.1269 1515.26 112.205C1525.6 131.377 1529.86 149.307 1529.3 171.414L1528.98 184.136L1540.29 183.824C1547.97 183.612 1553.82 183.978 1558.5 184.962C1571.76 187.754 1586.19 196.61 1595.27 207.52C1600.02 213.237 1606.98 227.145 1608.79 234.549C1610.61 242.03 1610.33 259.961 1608.26 267.529C1601.73 291.447 1582.87 309.663 1558.77 315.318C1552.02 316.903 1540.83 317 1365.4 317C1188.18 317 1178.9 316.917 1173.15 315.285C1150.03 308.728 1134.34 292.214 1129.21 269.022C1125.99 254.488 1129.36 236.355 1137.58 223.98C1146.1 211.147 1160.47 201.224 1174.95 198.164C1184.36 196.177 1198.87 196.829 1206.01 199.561C1208.83 200.64 1211.28 201.387 1211.44 201.221C1211.61 201.056 1211.05 199.051 1210.2 196.768C1207.89 190.583 1208.13 175.54 1210.65 167.645C1215.14 153.652 1225.84 141.197 1238.56 135.164C1246.68 131.316 1252.95 129.949 1262.45 129.965C1270.9 129.978 1277.19 131.474 1285.89 135.543C1289.33 137.151 1292.25 138.353 1292.38 138.214C1292.5 138.076 1294.34 133.348 1296.46 127.71C1310.34 90.7828 1341.54 62.7738 1379.54 53.1227C1386.92 51.2494 1407.55 48.5912 1411.13 49.053C1411.65 49.1199 1416.13 49.5335 1421.09 49.9726Z" fill="#A0ACB3"/>
<path fill-rule="evenodd" clip-rule="evenodd" d="M302.333 0.776448C297.275 2.26845 294 6.95245 294 12.6964C294 18.6814 297.068 22.8015 302.807 24.5205C305.626 25.3655 323.659 25.6964 366.827 25.6964H426.923L427.918 29.4464C428.99 33.4854 434.449 57.4424 438 73.6964C438.661 76.7214 439.562 80.7714 440.003 82.6964C440.443 84.6214 441.241 88.2214 441.775 90.6964C442.682 94.8994 448.172 118.967 451.583 133.696C452.41 137.271 453.486 141.996 453.974 144.196C454.461 146.396 455.373 150.446 456 153.196C456.627 155.946 457.587 160.221 458.133 162.696C458.679 165.171 459.519 168.771 460 170.696C460.481 172.621 461.321 176.221 461.867 178.696C462.413 181.171 463.332 185.221 463.909 187.696C464.962 192.214 470.383 216.392 474.11 233.196C475.208 238.146 476.508 243.771 477 245.696C477.492 247.621 478.832 253.471 479.98 258.696C481.127 263.921 482.485 269.996 482.999 272.196C486.239 286.091 491.483 309.125 494.95 324.696C496.114 329.921 497.501 336.109 498.033 338.446C498.565 340.783 499.435 344.609 499.966 346.946C500.497 349.283 502.12 356.371 503.573 362.696C507.293 378.888 511.132 395.791 513 404.196C513.55 406.671 514.45 410.721 515 413.196C517.142 422.835 517.618 424.928 522.964 448.196C524.101 453.146 525.939 461.246 527.048 466.196C528.158 471.146 529.479 476.996 529.984 479.196C530.489 481.396 531.445 485.671 532.109 488.696C532.773 491.721 534.145 497.45 535.158 501.428C537.905 512.21 537.753 512.973 532.028 517.176C522.152 524.425 511.795 538.575 507.486 550.705C505.31 556.832 503 569.216 503 574.762C503 587.816 508.131 603.87 516.113 615.787C520.244 621.953 532.401 633.702 537.342 636.304C547.919 641.872 550.921 643.188 557.356 645.079C564.484 647.172 564.931 647.178 753.5 647.487C857.45 647.657 944.41 647.522 946.745 647.186C952.077 646.419 956.264 642.957 957.916 637.949C959.036 634.558 958.965 633.597 957.347 630.224C956.331 628.105 954.23 625.432 952.677 624.284L949.854 622.196L756.677 621.696L563.5 621.196L558.5 618.765C538.864 609.22 529.048 594.454 529.015 574.414C528.985 556.691 537.958 541.869 554.168 532.861C564.003 527.395 551.481 527.696 769.315 527.696C917.623 527.696 971.271 527.395 974.098 526.548C976.205 525.917 978.803 524.455 979.871 523.298C980.939 522.142 983.926 514.671 986.509 506.696C989.091 498.721 993.357 485.671 995.988 477.696C998.619 469.721 1004.25 452.396 1008.5 439.196C1012.75 425.996 1016.58 414.296 1017 413.196C1017.43 412.096 1021.48 399.721 1026.01 385.696C1030.54 371.671 1035.72 355.696 1037.51 350.196C1039.31 344.696 1046.72 321.971 1053.98 299.696C1061.24 277.421 1068.44 255.371 1069.98 250.696C1079.1 222.954 1088 194.852 1088 193.817C1088 190.756 1083.86 184.857 1080.64 183.328C1077.45 181.815 1055.76 181.705 805.643 181.941L534.111 182.196L530.556 185.642C527.446 188.656 527 189.695 527 193.927C527 196.738 527.691 199.821 528.648 201.282C532.453 207.089 513.095 206.696 795.328 206.696C1001.65 206.696 1054.97 206.952 1055.79 207.946C1056.53 208.838 1055.6 212.92 1052.53 222.196C1047.26 238.123 1035.2 275.174 1026.33 302.696C1022.7 313.971 1019.38 324.096 1018.96 325.196C1018.53 326.296 1014.7 337.996 1010.44 351.196C1006.18 364.396 1000.11 383.071 996.96 392.696C993.808 402.321 987.285 422.346 982.463 437.196C977.641 452.046 970.952 472.521 967.597 482.696L961.499 501.196L762.052 501.448C648.133 501.593 562.227 501.323 561.725 500.821C560.807 499.903 560.31 498.083 556.908 483.196C555.776 478.246 554.48 472.621 554.026 470.696C553.573 468.771 552.661 464.721 552 461.696C549.779 451.53 549.273 449.26 545.095 430.696C542.805 420.521 540.023 408.371 538.911 403.696C537.8 399.021 536.465 393.283 535.945 390.946C535.425 388.609 534.519 384.558 533.93 381.946C533.342 379.334 532.459 375.396 531.969 373.196C531.479 370.996 530.183 365.371 529.09 360.696C527.996 356.021 526.162 347.921 525.014 342.696C523.865 337.471 522.248 330.271 521.419 326.696C520.59 323.121 519.514 318.396 519.026 316.196C517.299 308.4 516.085 303.094 514.107 294.696C512.131 286.308 504.687 253.438 502.783 244.696C502.244 242.221 501.443 238.621 501.002 236.696C498.545 225.96 495.727 213.635 494.829 209.696C494.265 207.221 493.443 203.621 493.002 201.696C492.562 199.771 491.301 194.146 490.2 189.196C489.099 184.246 486.517 172.996 484.462 164.196C482.406 155.396 480.361 146.396 479.917 144.196C479.473 141.996 478.68 138.396 478.156 136.196C477.631 133.996 476.661 129.721 476 126.696C473.852 116.865 473.321 114.523 467.495 89.1964C461.806 64.4625 461.345 62.4314 459 51.6964C458.339 48.6714 457.439 44.6214 457 42.6964C456.561 40.7714 455.715 36.9464 455.119 34.1964C451.744 18.6014 449.036 8.56545 447.503 5.97045C443.927 -0.0835514 447.601 0.212444 373.5 0.0194444C333.734 -0.0835556 304.185 0.230448 302.333 0.776448ZM702.19 296.722C696.341 300.288 694.371 308.511 697.956 314.392C700.707 318.903 704.181 320.863 709.43 320.863C714.928 320.863 719.611 317.871 721.613 313.079C723.426 308.741 723.363 306.263 721.33 301.979C718.056 295.08 708.974 292.585 702.19 296.722ZM823.299 296.656C813.453 302.659 815.971 318.096 827.209 320.63C831.175 321.525 836.948 319.958 840.061 317.141C844.116 313.471 844.468 304.329 840.734 299.65C836.621 294.497 828.988 293.186 823.299 296.656ZM747 354.315C711.843 357.344 680.501 364.581 651 376.481C638.254 381.622 619.622 390.702 617.254 392.927C612.754 397.154 615.716 404.696 621.875 404.696C623.456 404.696 630.094 402.179 636.625 399.102C679.382 378.96 716.053 370.153 762.053 368.978C812.741 367.683 858.099 377.712 904.768 400.534C915.427 405.747 918.411 406.109 921.607 402.578C923.674 400.294 923.862 395.439 921.971 393.161C921.222 392.258 916.759 389.589 912.054 387.23C883.303 372.812 850.018 362.356 816 357.058C802.357 354.932 795.344 354.439 775.5 354.207C762.3 354.053 749.475 354.101 747 354.315ZM607.774 656.605C598.036 659.114 590.721 663.27 582.373 671.035C570.642 681.947 565.024 695.277 565.024 712.196C565.024 725.345 567.528 733.449 575.076 744.727C581.713 754.645 590.595 761.375 603.419 766.202C609.349 768.434 611.906 768.8 621.66 768.812C634.214 768.827 640.672 767.188 650.993 761.369C656.317 758.367 670 745.5 670 743.495C670 742.951 670.839 741.31 671.865 739.85C672.891 738.39 674.803 734.271 676.115 730.696C678.173 725.086 678.491 722.484 678.437 711.696C678.368 698.097 677.043 693.011 670.761 682.233C658.579 661.331 631.77 650.422 607.774 656.605ZM879.5 655.696C878.4 656.169 876.459 656.587 875.187 656.626C871.981 656.723 860.75 662.28 855.023 666.603C844.909 674.235 836.859 686.489 833.94 698.696C832.062 706.548 832.284 720 834.41 727.16C840.057 746.181 855.517 761.8 874.186 767.344C882.111 769.697 898.848 769.38 906.788 766.725C925.533 760.459 939.288 746.103 945.143 726.696C947.058 720.348 946.804 702.603 944.701 695.823C938.7 676.474 922.082 660.874 902.486 656.196C895.917 654.628 882.657 654.339 879.5 655.696ZM629.972 681.28C639.795 684.197 645.941 689.382 650.619 698.696C654.392 706.209 654.531 717.687 650.939 725.196C640.991 745.997 613.207 750.235 598.243 733.235C590.892 724.884 587.995 712.038 591.313 702.512C594.745 692.662 603.956 683.87 613.626 681.214C620.234 679.4 623.683 679.413 629.972 681.28ZM903.625 683.683C915.127 689.345 921.02 698.786 921.104 711.685C921.149 718.521 920.738 720.46 918.046 726.099C912.66 737.384 902.326 743.697 889.239 743.695C872.047 743.693 858 729.529 858 712.196C858 706.143 858.353 704.67 861.624 697.081C863.253 693.299 870.249 686.138 874.44 683.961C884.08 678.956 893.833 678.862 903.625 683.683Z" fill="#617480"/>
<path d="M161 785L1448 785" stroke="#617480" stroke-width="26" stroke-linecap="round"/>
<path d="M13 785L82 785" stroke="#617480" stroke-width="26" stroke-linecap="round"/>
</svg>
